<?xml version="1.0" standalone="no"?>
<!DOCTYPE svg PUBLIC "-//W3C//DTD SVG 20010904//EN"
 "http://www.w3.org/TR/2001/REC-SVG-20010904/DTD/svg10.dtd">
<svg version="1.0" xmlns="http://www.w3.org/2000/svg"
 width="900.000000pt" height="900.000000pt" viewBox="0 0 900.000000 900.000000"
 preserveAspectRatio="xMidYMid meet">
<metadata>
Created by potrace 1.10, written by Peter Selinger 2001-2011
</metadata>
<g transform="translate(0.000000,900.000000) scale(0.100000,-0.100000)"
fill="#fff" stroke="none">
<path d="M2840 8121 c-86 -9 -219 -45 -288 -80 -42 -21 -109 -55 -127 -65 -11
-6 -53 -36 -95 -67 -154 -115 -263 -246 -340 -409 -12 -25 -26 -54 -32 -65 -6
-11 -15 -33 -19 -50 -4 -16 -12 -43 -17 -60 -6 -16 -17 -56 -26 -88 -9 -31
-22 -81 -30 -110 -8 -28 -22 -81 -31 -117 -23 -88 -42 -159 -62 -224 -9 -29
-13 -61 -9 -71 5 -15 12 -11 43 26 44 52 276 284 349 349 164 146 321 255 634
440 22 13 220 109 255 124 17 7 46 20 65 28 19 9 55 23 80 33 25 9 60 23 78
31 18 8 39 14 47 14 8 0 29 6 47 14 52 22 136 46 316 90 31 8 102 22 157 32
55 10 104 21 109 25 10 9 11 9 -84 34 -36 9 -87 23 -115 30 -27 8 -79 21 -115
30 -36 9 -89 23 -117 31 -29 8 -77 20 -105 28 -29 8 -78 21 -108 30 -64 18
-343 28 -460 17z"/>
<path d="M4235 7644 c-179 -9 -527 -76 -700 -136 -16 -5 -43 -13 -60 -18 -16
-5 -55 -18 -85 -30 -30 -12 -66 -25 -80 -30 -66 -22 -369 -168 -435 -211 -16
-10 -39 -23 -50 -29 -87 -46 -296 -197 -420 -303 -109 -94 -338 -329 -407
-419 -71 -91 -178 -238 -178 -243 0 -1 -19 -31 -42 -66 -53 -79 -80 -129 -162
-294 -151 -309 -232 -569 -293 -950 -26 -159 -26 -691 0 -850 61 -381 142
-641 293 -950 82 -165 109 -215 162 -294 23 -35 42 -65 42 -66 0 -5 107 -152
176 -241 69 -90 302 -329 409 -421 124 -106 333 -257 420 -303 11 -6 34 -19
50 -29 66 -43 369 -189 435 -211 14 -5 50 -18 80 -30 30 -12 69 -25 85 -30 17
-5 44 -13 60 -18 117 -40 326 -88 525 -119 166 -26 694 -26 860 0 199 31 408
79 525 119 17 5 44 13 60 18 17 5 55 18 85 30 30 12 69 26 87 31 18 5 35 14
38 19 4 6 13 10 22 10 17 0 314 146 368 180 17 11 39 24 50 30 87 46 297 198
420 304 84 72 305 293 357 356 205 252 302 401 432 665 129 265 199 469 260
765 46 222 50 277 51 605 0 260 -4 341 -18 430 -33 206 -64 341 -124 540 -60
196 -217 532 -328 700 -22 33 -43 67 -48 75 -17 35 -124 176 -225 300 -53 64
-275 286 -357 356 -123 106 -333 258 -420 304 -11 6 -33 19 -50 29 -66 43
-369 189 -435 211 -14 5 -50 18 -80 30 -30 12 -68 25 -85 30 -16 5 -43 13 -60
18 -115 40 -325 87 -515 117 -102 16 -527 28 -695 19z m-460 -859 c22 -8 48
-15 57 -15 19 0 58 -16 158 -63 197 -94 368 -285 445 -497 52 -143 69 -338 40
-468 -9 -42 -23 -92 -31 -110 -8 -18 -14 -39 -14 -46 0 -7 -16 -44 -36 -82
-163 -312 -475 -504 -821 -504 -160 0 -313 45 -491 145 -43 24 -153 119 -190
165 -20 25 -39 47 -42 50 -15 12 -69 101 -93 151 -63 133 -104 326 -93 432 11
107 47 260 75 315 44 87 60 115 97 167 23 33 57 76 76 96 37 40 135 122 158
133 8 3 29 15 45 26 17 11 39 24 50 29 104 47 141 61 159 62 11 0 37 7 56 14
50 19 341 19 395 0z m2247 -430 c48 -7 96 -19 107 -24 11 -6 27 -11 35 -11 14
0 137 -56 181 -83 92 -56 230 -187 280 -267 54 -86 98 -185 130 -295 24 -81
25 -338 1 -405 -9 -25 -16 -53 -16 -62 0 -10 -8 -34 -17 -55 -28 -64 -53 -117
-66 -138 -27 -45 -127 -172 -153 -196 -117 -105 -265 -188 -399 -223 -192 -50
-381 -39 -570 31 -199 75 -393 249 -481 433 -99 206 -121 449 -60 666 35 124
125 274 225 374 213 212 504 304 803 255z m-1465 -1496 c112 -27 224 -109 271
-198 27 -51 52 -144 52 -195 0 -54 -28 -158 -48 -178 -7 -7 -12 -18 -12 -25 0
-19 -111 -126 -151 -144 -96 -45 -112 -49 -192 -49 -148 0 -268 63 -345 183
-125 196 -54 464 152 569 84 43 188 57 273 37z m-1327 -453 c58 -8 121 -20
140 -27 97 -33 131 -48 215 -93 38 -21 130 -94 174 -137 160 -160 246 -352
257 -574 9 -174 -13 -307 -72 -431 -177 -378 -575 -588 -984 -519 -206 34
-373 124 -518 280 -103 110 -166 226 -217 400 -24 81 -25 338 -1 405 9 25 16
52 16 61 0 20 63 166 79 182 6 6 11 15 11 20 0 10 79 116 119 161 24 26 150
125 196 153 11 7 40 22 65 34 25 12 53 26 64 31 33 17 128 40 216 53 115 17
120 17 240 1z m2338 -441 c124 -29 212 -63 330 -130 43 -24 153 -119 190 -165
20 -25 39 -47 42 -50 15 -12 69 -101 93 -151 63 -133 104 -326 93 -432 -11
-107 -47 -260 -75 -315 -44 -87 -60 -115 -97 -167 -23 -33 -57 -76 -76 -96
-37 -40 -135 -122 -158 -133 -8 -3 -28 -15 -45 -25 -58 -38 -150 -77 -235
-101 -25 -7 -117 -15 -205 -17 -127 -4 -174 -1 -225 12 -311 79 -551 290 -655
575 -67 184 -68 420 -4 600 101 285 367 526 639 581 25 5 61 13 80 18 58 15
235 12 308 -4z"/>
<path d="M6636 7211 c-3 -5 5 -16 19 -25 87 -57 295 -254 434 -411 120 -135
314 -392 344 -455 4 -8 16 -28 27 -45 11 -16 24 -39 30 -50 6 -11 26 -47 45
-80 66 -118 165 -327 165 -348 0 -7 4 -17 9 -22 5 -6 17 -30 25 -55 28 -78 85
-253 100 -305 8 -27 21 -75 30 -106 9 -31 16 -66 16 -78 0 -12 7 -47 15 -79 8
-31 17 -83 20 -114 5 -40 11 -58 20 -58 17 0 35 31 35 61 0 11 7 42 14 68 14
44 28 94 60 214 8 28 21 77 29 107 9 30 23 83 31 118 9 34 23 88 31 120 48
193 34 515 -30 667 -7 17 -21 50 -31 75 -10 25 -24 52 -31 61 -7 8 -13 19 -13
24 0 25 -106 162 -195 251 -163 164 -307 244 -555 309 -36 9 -90 23 -120 32
-90 24 -151 40 -220 58 -92 23 -167 44 -221 61 -54 16 -76 18 -83 5z"/>
<path d="M986 3848 c-4 -18 -13 -57 -21 -85 -14 -49 -22 -80 -60 -218 -7 -27
-21 -78 -29 -112 -9 -35 -23 -89 -31 -120 -49 -195 -34 -514 31 -670 32 -75
47 -109 55 -123 5 -8 13 -25 19 -37 40 -93 244 -316 354 -388 121 -78 236
-128 396 -170 36 -9 89 -23 118 -31 28 -8 76 -20 105 -28 28 -8 81 -22 117
-31 36 -9 86 -22 111 -30 52 -17 109 -20 109 -6 0 5 -11 16 -24 25 -62 40
-345 317 -443 432 -81 96 -197 251 -264 354 -48 73 -72 114 -135 225 -45 79
-174 349 -174 365 0 5 -6 24 -14 42 -34 81 -69 177 -90 251 -49 172 -72 264
-83 332 -10 62 -38 75 -47 23z"/>
<path d="M7217 2356 c-55 -83 -291 -332 -437 -461 -116 -101 -279 -226 -368
-280 -9 -6 -44 -28 -77 -50 -33 -22 -76 -48 -95 -59 -19 -11 -53 -30 -75 -42
-75 -42 -274 -139 -350 -170 -69 -28 -241 -90 -290 -104 -16 -5 -61 -18 -100
-30 -38 -11 -88 -24 -110 -29 -22 -5 -60 -13 -85 -19 -25 -6 -82 -19 -128 -28
-90 -19 -109 -30 -65 -39 31 -7 123 -30 198 -50 28 -8 79 -21 115 -30 36 -9
89 -23 118 -31 28 -8 76 -20 105 -28 28 -8 79 -22 112 -32 86 -25 490 -26 549
-1 21 9 47 17 57 17 28 0 155 55 264 114 43 24 173 126 224 177 88 88 165 197
215 304 10 22 23 49 29 60 5 11 14 33 18 50 4 16 12 44 17 60 6 17 17 56 26
88 9 31 22 81 30 110 8 28 22 81 31 117 9 36 23 90 32 120 8 30 21 78 28 105
7 28 21 76 31 108 20 66 9 96 -19 53z"/>
</g>
</svg>
